<?xml version="1.0" encoding="utf-8"?>
<!-- Generator: Adobe Illustrator 22.0.1, SVG Export Plug-In . SVG Version: 6.00 Build 0)  -->
<svg version="1.1"
	 id="svg8" inkscape:export-filename="E:\Dropbox\shutterstockPack\inkscapePack\iconPack_001\12_2017\001\241217_04.png" inkscape:export-xdpi="96" inkscape:export-ydpi="96" inkscape:version="0.92.2 (5c3e80d, 2017-08-06)" sodipodi:docname="241217_04.svg" xmlns:cc="http://creativecommons.org/ns#" xmlns:dc="http://purl.org/dc/elements/1.1/" xmlns:inkscape="http://www.inkscape.org/namespaces/inkscape" xmlns:rdf="http://www.w3.org/1999/02/22-rdf-syntax-ns#" xmlns:sodipodi="http://sodipodi.sourceforge.net/DTD/sodipodi-0.dtd" xmlns:svg="http://www.w3.org/2000/svg"
	 xmlns="http://www.w3.org/2000/svg" xmlns:xlink="http://www.w3.org/1999/xlink" x="0px" y="0px" viewBox="0 0 866.2 858.7"
	 style="enable-background:new 0 0 866.2 858.7;" xml:space="preserve">
<style type="text/css">
	.st0{opacity:2.000000e-02;fill:#00002B;enable-background:new    ;}
	.st1{fill:#E7F2F8;}
	.st2{fill:#C8D3D5;}
	.st3{fill:#FFFFFF;}
	.st4{fill-rule:evenodd;clip-rule:evenodd;fill:#00549D;}
	.st5{fill-rule:evenodd;clip-rule:evenodd;fill:#0086D4;}
	.st6{fill-rule:evenodd;clip-rule:evenodd;fill:#FFFFFF;}
	.st7{fill-rule:evenodd;clip-rule:evenodd;fill:#0075C0;}
	.st8{fill-rule:evenodd;clip-rule:evenodd;fill:#283593;}
	.st9{fill-rule:evenodd;clip-rule:evenodd;fill:#5C6BC0;}
	.st10{fill-rule:evenodd;clip-rule:evenodd;fill:#3949AB;}
</style>
<g id="g1807" transform="translate(-6.697445,-5.4243241e-6)">
	<path id="path4234" inkscape:connector-curvature="0" class="st0" d="M459.6,799.4c89.7,51.8,235.1,51.8,324.8,0v0
		c89.7-51.8,89.7-135.7,0-187.5l0,0c-89.7-51.8-235.1-51.8-324.8,0l0,0C369.9,663.6,369.9,747.6,459.6,799.4L459.6,799.4z"/>
	<path id="circle5956" inkscape:connector-curvature="0" class="st0" d="M471.2,792.7c83.3,48.1,218.3,48.1,301.6,0
		c83.3-48.1,83.3-126.1,0-174.1l0,0c-83.3-48.1-218.3-48.1-301.6,0C387.9,666.6,387.9,744.6,471.2,792.7L471.2,792.7z"/>
	<path id="circle5958" inkscape:connector-curvature="0" class="st0" d="M483.3,785.7c76.6,44.2,200.9,44.2,277.5,0l0,0
		c76.6-44.2,76.6-116,0-160.2c-76.6-44.2-200.9-44.2-277.5,0l0,0C406.6,669.7,406.6,741.4,483.3,785.7z"/>
	<path id="circle5960" inkscape:connector-curvature="0" class="st0" d="M496.3,778.2c69.4,40.1,182,40.1,251.4,0l0,0
		c69.4-40.1,69.4-105.1,0-145.1l0,0c-69.4-40.1-182-40.1-251.4,0l0,0C426.9,673.1,426.9,738.1,496.3,778.2L496.3,778.2z"/>
	<path id="circle5962" inkscape:connector-curvature="0" class="st0" d="M509.4,770.6c62.2,35.9,163.1,35.9,225.3,0l0,0
		c62.2-35.9,62.2-94.1,0-130.1l0,0c-62.2-35.9-163.1-35.9-225.3,0l0,0C447.2,676.5,447.2,734.7,509.4,770.6L509.4,770.6z"/>
	<path id="circle5964" inkscape:connector-curvature="0" class="st0" d="M521.4,763.7c55.5,32.1,145.6,32.1,201.2,0l0,0
		c55.5-32.1,55.5-84.1,0-116.1l0,0c-55.5-32.1-145.6-32.1-201.2,0l0,0C465.9,679.6,465.9,731.6,521.4,763.7L521.4,763.7z"/>
	<path id="circle5966" inkscape:connector-curvature="0" class="st0" d="M533.5,756.7c48.9,28.2,128.2,28.2,177,0
		c48.9-28.2,48.9-74,0-102.2l0,0c-48.9-28.2-128.2-28.2-177,0C484.6,682.7,484.6,728.5,533.5,756.7L533.5,756.7z"/>
	<path id="circle5968" inkscape:connector-curvature="0" class="st0" d="M546.6,749.2c41.7,24.1,109.3,24.1,150.9,0l0,0
		c41.7-24.1,41.7-63.1,0-87.1l0,0c-41.7-24.1-109.3-24.1-150.9,0l0,0C504.9,686.1,504.9,725.1,546.6,749.2L546.6,749.2z"/>
	<path id="circle5970" inkscape:connector-curvature="0" class="st0" d="M558.6,742.2c35,20.2,91.8,20.2,126.8,0
		c35-20.2,35-53,0-73.2l0,0c-35-20.2-91.8-20.2-126.8,0C523.6,689.2,523.6,722,558.6,742.2L558.6,742.2z"/>
	<path id="circle5972" inkscape:connector-curvature="0" class="st0" d="M569.7,735.8c28.9,16.7,75.8,16.7,104.7,0
		c28.9-16.7,28.9-43.8,0-60.5l0,0c-28.9-16.7-75.8-16.7-104.7,0C540.7,692,540.7,719.1,569.7,735.8L569.7,735.8z"/>
	<path id="circle5974" inkscape:connector-curvature="0" class="st0" d="M580.7,729.4c22.8,13.2,59.8,13.2,82.6,0l0,0
		c22.8-13.2,22.8-34.5,0-47.7c-22.8-13.2-59.8-13.2-82.6,0l0,0C557.9,694.9,557.9,716.3,580.7,729.4z"/>
	<path id="circle5976" inkscape:connector-curvature="0" class="st0" d="M592.3,722.7c16.4,9.5,43,9.5,59.4,0
		c16.4-9.5,16.4-24.8,0-34.3l0,0c-16.4-9.5-43-9.5-59.4,0C575.9,697.9,575.9,713.3,592.3,722.7L592.3,722.7z"/>
</g>
<g>
	<g>
		<path id="rect4142_1_" inkscape:connector-curvature="0" class="st1" d="M442.9,22.2c6.6,0.1,14,2.4,21.8,6.9l301.4,174
			c27.8,16.1,50.2,54.9,50.2,87v348.1c0,15.9-5.5,27.1-14.4,32.4l0,0l-0.2,0.1c0,0,0,0-0.1,0l-51.8,29.8l-37.2-64.3L464.7,493.2
			c-27.8-16.1-50.2-54.9-50.2-87V121.4L376.6,56l50.2-29l0,0C431.3,23.7,436.8,22,442.9,22.2L442.9,22.2z"/>
		<path id="path4165_1_" inkscape:connector-curvature="0" class="st2" d="M801.7,240.6c9.1,15.7,14.7,33.5,14.7,49.5v348.1
			c0,15.9-5.5,27.1-14.4,32.4l0,0l-0.2,0.1c0,0,0,0-0.1,0l-51.8,29.8l-37.2-64.3L464.7,493.2c-13.9-8-26.5-21.8-35.6-37.5v0
			L801.7,240.6z"/>
		<path id="rect1913_1_" class="st3" d="M715.9,232.1l-301.4-174c-27.7-16-50.2-3-50.2,29v348.1c0,32,22.5,71,50.2,87l301.4,174
			c27.7,16,50.2,3,50.2-29V319.1C766.2,287.1,743.7,248.1,715.9,232.1z"/>
	</g>
	<g>
		<path class="st4" d="M550.9,197.8c5.1-1.3,11.4,1.1,16.4,6.2c24.9,25.4,99.9,101.8,124.8,127.1c5,5.2,8.1,12.3,8,18.7
			c-0.3,31.9-1.3,127.9-1.7,159.7c-0.1,6.4-3.3,11.2-8.4,12.5c-25.2,6.5-101.2,26.1-126.4,32.6c-5.1,1.3-11.4-1.1-16.4-6.2
			c-24.9-25.4-99.9-101.8-124.8-127.1c-5-5.2-8.1-12.3-8-18.7c0.3-31.9,1.3-127.9,1.7-159.7c0.1-6.4,3.3-11.2,8.4-12.5
			C449.7,223.9,525.7,204.3,550.9,197.8z"/>
		<path class="st5" d="M416.7,411.7c-2-3.8-2.2-6.7-2.2-10.6c0.3-31.7,1.3-127.1,1.6-158.8c0.1-6.4,3.3-11.2,8.3-12.5
			c25.2-6.4,100.9-25.8,126-32.3c5.1-1.3,11.9,1.3,17,6.5c24.8,25.2,99.3,100.8,124.1,126c2,2.1,3.5,4.2,4.9,6.8L416.7,411.7z"/>
		<path class="st6" d="M557.9,317c28.9,10.9,52,46.3,51.7,79s-24.1,50.4-52.9,39.6c-28.9-10.9-52-46.3-51.7-79
			C505.3,323.9,529.1,306.1,557.9,317z M558.5,257.7c57.8,21.7,104.1,92.5,103.4,157.9s-48.1,100.9-105.9,79.1
			c-57.8-21.7-104.1-92.5-103.4-157.9S500.8,236,558.5,257.7z"/>
		<path class="st7" d="M696.4,336.9c3.8,5.6,3.7,11.7,3.6,16.5c-0.3,32.1-1.5,123.4-1.5,155.7c0,3.4-1,6.6-2.5,8.6L554.3,375.1
			L696.4,336.9z"/>
		<polygon class="st6" points="609.9,370.6 624.9,376.2 624.3,427 609.4,421.4 		"/>
		<polygon class="st6" points="662.2,390.3 677.2,395.9 676.6,446.7 661.7,441.1 		"/>
		<polygon class="st6" points="594.8,381.9 639.6,398.7 639.5,415.7 594.6,398.8 		"/>
		<polygon class="st6" points="647.1,401.6 691.9,418.4 691.8,435.4 646.9,418.5 		"/>
	</g>
</g>
<g id="g1807_1_" transform="translate(-6.697445,-5.4243241e-6)">
	<path id="path4234_1_" inkscape:connector-curvature="0" class="st0" d="M113.7,791.4c87.9,50.7,230.4,50.7,318.3,0v0
		c87.9-50.7,87.9-133,0-183.8l0,0c-87.9-50.7-230.4-50.7-318.3,0l0,0C25.8,658.4,25.8,740.7,113.7,791.4L113.7,791.4z"/>
	<path id="circle5956_1_" inkscape:connector-curvature="0" class="st0" d="M125,784.9c81.6,47.1,214,47.1,295.6,0
		c81.6-47.1,81.6-123.5,0-170.7l0,0c-81.6-47.1-214-47.1-295.6,0C43.4,661.4,43.4,737.8,125,784.9L125,784.9z"/>
	<path id="circle5958_1_" inkscape:connector-curvature="0" class="st0" d="M136.9,778.1c75.1,43.4,196.9,43.4,271.9,0l0,0
		c75.1-43.4,75.1-113.7,0-157c-75.1-43.4-196.9-43.4-271.9,0l0,0C61.8,664.4,61.8,734.7,136.9,778.1z"/>
	<path id="circle5960_1_" inkscape:connector-curvature="0" class="st0" d="M149.7,770.7c68,39.3,178.3,39.3,246.4,0l0,0
		c68-39.3,68-103,0-142.2l0,0c-68-39.3-178.3-39.3-246.4,0l0,0C81.6,667.7,81.6,731.4,149.7,770.7L149.7,770.7z"/>
	<path id="circle5962_1_" inkscape:connector-curvature="0" class="st0" d="M162.4,763.3c61,35.2,159.8,35.2,220.8,0l0,0
		c61-35.2,61-92.3,0-127.5l0,0c-61-35.2-159.8-35.2-220.8,0l0,0C101.5,671,101.5,728.1,162.4,763.3L162.4,763.3z"/>
	<path id="circle5964_1_" inkscape:connector-curvature="0" class="st0" d="M174.3,756.5c54.4,31.4,142.7,31.4,197.1,0l0,0
		c54.4-31.4,54.4-82.4,0-113.8l0,0c-54.4-31.4-142.7-31.4-197.1,0l0,0C119.8,674.1,119.8,725,174.3,756.5L174.3,756.5z"/>
	<path id="circle5966_1_" inkscape:connector-curvature="0" class="st0" d="M186.1,749.6c47.9,27.7,125.6,27.7,173.5,0
		c47.9-27.7,47.9-72.5,0-100.2l0,0c-47.9-27.7-125.6-27.7-173.5,0C138.2,677.1,138.2,722,186.1,749.6L186.1,749.6z"/>
	<path id="circle5968_1_" inkscape:connector-curvature="0" class="st0" d="M198.9,742.3c40.8,23.6,107.1,23.6,147.9,0l0,0
		c40.8-23.6,40.8-61.8,0-85.4l0,0c-40.8-23.6-107.1-23.6-147.9,0l0,0C158,680.4,158,718.7,198.9,742.3L198.9,742.3z"/>
	<path id="circle5970_1_" inkscape:connector-curvature="0" class="st0" d="M210.7,735.4c34.3,19.8,90,19.8,124.3,0
		c34.3-19.8,34.3-51.9,0-71.8l0,0c-34.3-19.8-90-19.8-124.3,0C176.4,683.5,176.4,715.6,210.7,735.4L210.7,735.4z"/>
	<path id="circle5972_1_" inkscape:connector-curvature="0" class="st0" d="M221.5,729.2c28.3,16.4,74.3,16.4,102.6,0
		c28.3-16.4,28.3-42.9,0-59.2l0,0c-28.3-16.4-74.3-16.4-102.6,0C193.2,686.3,193.2,712.8,221.5,729.2L221.5,729.2z"/>
	<path id="circle5974_1_" inkscape:connector-curvature="0" class="st0" d="M232.3,722.9c22.4,12.9,58.6,12.9,81,0l0,0
		c22.4-12.9,22.4-33.8,0-46.7c-22.4-12.9-58.6-12.9-81,0l0,0C210,689.1,210,710,232.3,722.9z"/>
	<path id="circle5976_1_" inkscape:connector-curvature="0" class="st0" d="M243.7,716.4c16.1,9.3,42.1,9.3,58.2,0
		c16.1-9.3,16.1-24.3,0-33.6l0,0c-16.1-9.3-42.1-9.3-58.2,0C227.6,692,227.6,707.1,243.7,716.4L243.7,716.4z"/>
</g>
<g>
	<g>
		<path id="rect4142_3_" inkscape:connector-curvature="0" class="st1" d="M97.2,29.9c6.5,0.1,13.7,2.3,21.4,6.8l295.4,170.5
			c27.3,15.7,49.2,53.8,49.2,85.3v341.1c0,15.6-5.4,26.6-14.1,31.8l0,0l-0.2,0.1c0,0,0,0-0.1,0L398,694.7l-36.5-63l-243-140.3
			c-27.3-15.7-49.2-53.8-49.2-85.3V127.1L32.2,63l49.2-28.4l0,0C85.8,31.4,91.1,29.7,97.2,29.9L97.2,29.9z"/>
		<path id="path4165_3_" inkscape:connector-curvature="0" class="st2" d="M448.8,243.9c8.9,15.4,14.4,32.8,14.4,48.5v341.1
			c0,15.6-5.4,26.6-14.1,31.8l0,0l-0.2,0.1c0,0,0,0-0.1,0L398,694.7l-36.5-63l-243-140.3c-13.6-7.9-25.9-21.3-34.8-36.7v0
			L448.8,243.9z"/>
		<path id="rect1913_3_" class="st3" d="M364.7,235.6L69.3,65c-27.2-15.7-49.2-3-49.2,28.4v341.1c0,31.4,22,69.6,49.2,85.3
			l295.4,170.5c27.2,15.7,49.2,3,49.2-28.4V320.9C413.9,289.5,391.9,251.3,364.7,235.6z"/>
	</g>
</g>
<g>
	<path class="st8" d="M209.8,216.4c4.8-1.2,10.5,1,15.2,5.7c23,23.5,92.6,94.3,115.7,117.9c4.7,4.8,7.5,11.4,7.5,17.3
		c-0.3,29.6-1.2,118.5-1.5,148.1c-0.1,6-3,10.4-7.8,11.6c-23.4,6-93.8,24.2-117.2,30.2c-4.8,1.2-10.5-1-15.2-5.7
		c-23.1-23.5-92.6-94.3-115.7-117.9c-4.7-4.8-7.5-11.4-7.5-17.3c0.3-29.6,1.2-118.5,1.5-148.1c0.1-6,3-10.4,7.8-11.6
		C116,240.6,186.5,222.4,209.8,216.4z"/>
	<path class="st9" d="M85.4,414.7c-1.8-3.5-2.1-6.2-2-9.8c0.3-29.4,1.2-117.8,1.5-147.2c0.1-5.9,3-10.4,7.7-11.6
		c23.3-6,93.5-24,116.8-29.9c4.7-1.2,11.1,1.2,15.7,6c23,23.4,92,93.4,115,116.8c1.9,1.9,3.3,3.9,4.5,6.3L85.4,414.7z"/>
	<path class="st6" d="M216.3,326.9c26.8,10.1,48.3,42.9,47.9,73.2c-0.3,30.3-22.3,46.8-49.1,36.7s-48.3-42.9-47.9-73.2
		C167.6,333.2,189.6,316.8,216.3,326.9z M216.9,271.9c53.5,20.1,96.5,85.7,95.9,146.4s-44.6,93.5-98.1,73.4
		c-53.5-20.1-96.5-85.7-95.9-146.4C119.4,284.7,163.4,251.8,216.9,271.9z"/>
	<path class="st10" d="M344.7,345.3c3.5,5.1,3.4,10.8,3.4,15.3c-0.3,29.8-1.4,114.4-1.4,144.3c0,3.1-1,6.1-2.4,8L213,380.8
		L344.7,345.3z"/>
</g>
</svg>
